<svg width="172" height="168" viewBox="0 0 172 168" fill="none" xmlns="http://www.w3.org/2000/svg">
<path d="M172 51.9003L46.1677 105.478C35.733 109.893 26.9682 112.107 19.8803 112.107C11.8537 112.107 6.02717 109.298 2.41517 103.672C0.143342 100.06 -0.523158 95.4808 0.408508 89.9267C1.34018 84.3725 3.81984 78.46 7.83317 72.1677C11.18 67.0793 16.6625 60.3928 24.295 52.101C21.7062 56.1764 19.8077 60.6512 18.6763 65.345C16.6697 73.9092 18.4757 80.1943 24.0943 84.2077C26.7675 86.0782 30.444 87.017 35.131 87.017C38.872 87.017 43.086 86.415 47.773 85.211L172 51.9003Z" fill="#830600"/>
</svg>
